<svg width="72" height="62" viewBox="0 0 32 22" fill="none" xmlns="http://www.w3.org/2000/svg">
<path d="M7.13672 7.6543H4.85742V6.73438H7.13672C7.57812 6.73438 7.93555 6.66406 8.20898 6.52344C8.48242 6.38281 8.68164 6.1875 8.80664 5.9375C8.93555 5.6875 9 5.40234 9 5.08203C9 4.78906 8.93555 4.51367 8.80664 4.25586C8.68164 3.99805 8.48242 3.79102 8.20898 3.63477C7.93555 3.47461 7.57812 3.39453 7.13672 3.39453H5.12109V11H3.99023V2.46875H7.13672C7.78125 2.46875 8.32617 2.58008 8.77148 2.80273C9.2168 3.02539 9.55469 3.33398 9.78516 3.72852C10.0156 4.11914 10.1309 4.56641 10.1309 5.07031C10.1309 5.61719 10.0156 6.08398 9.78516 6.4707C9.55469 6.85742 9.2168 7.15234 8.77148 7.35547C8.32617 7.55469 7.78125 7.6543 7.13672 7.6543ZM13.9453 11.1172C13.5039 11.1172 13.1035 11.043 12.7441 10.8945C12.3887 10.7422 12.082 10.5293 11.8242 10.2559C11.5703 9.98242 11.375 9.6582 11.2383 9.2832C11.1016 8.9082 11.0332 8.49805 11.0332 8.05273V7.80664C11.0332 7.29102 11.1094 6.83203 11.2617 6.42969C11.4141 6.02344 11.6211 5.67969 11.8828 5.39844C12.1445 5.11719 12.4414 4.9043 12.7734 4.75977C13.1055 4.61523 13.4492 4.54297 13.8047 4.54297C14.2578 4.54297 14.6484 4.62109 14.9766 4.77734C15.3086 4.93359 15.5801 5.15234 15.791 5.43359C16.002 5.71094 16.1582 6.03906 16.2598 6.41797C16.3613 6.79297 16.4121 7.20312 16.4121 7.64844V8.13477H11.6777V7.25H15.3281V7.16797C15.3125 6.88672 15.2539 6.61328 15.1523 6.34766C15.0547 6.08203 14.8984 5.86328 14.6836 5.69141C14.4688 5.51953 14.1758 5.43359 13.8047 5.43359C13.5586 5.43359 13.332 5.48633 13.125 5.5918C12.918 5.69336 12.7402 5.8457 12.5918 6.04883C12.4434 6.25195 12.3281 6.5 12.2461 6.79297C12.1641 7.08594 12.123 7.42383 12.123 7.80664V8.05273C12.123 8.35352 12.1641 8.63672 12.2461 8.90234C12.332 9.16406 12.4551 9.39453 12.6152 9.59375C12.7793 9.79297 12.9766 9.94922 13.207 10.0625C13.4414 10.1758 13.707 10.2324 14.0039 10.2324C14.3867 10.2324 14.7109 10.1543 14.9766 9.99805C15.2422 9.8418 15.4746 9.63281 15.6738 9.37109L16.3301 9.89258C16.1934 10.0996 16.0195 10.2969 15.8086 10.4844C15.5977 10.6719 15.3379 10.8242 15.0293 10.9414C14.7246 11.0586 14.3633 11.1172 13.9453 11.1172ZM20.332 4.66016V5.49219H16.9043V4.66016H20.332ZM18.0645 3.11914H19.1484V9.42969C19.1484 9.64453 19.1816 9.80664 19.248 9.91602C19.3145 10.0254 19.4004 10.0977 19.5059 10.1328C19.6113 10.168 19.7246 10.1855 19.8457 10.1855C19.9355 10.1855 20.0293 10.1777 20.127 10.1621C20.2285 10.1426 20.3047 10.127 20.3555 10.1152L20.3613 11C20.2754 11.0273 20.1621 11.0527 20.0215 11.0762C19.8848 11.1035 19.7188 11.1172 19.5234 11.1172C19.2578 11.1172 19.0137 11.0645 18.791 10.959C18.5684 10.8535 18.3906 10.6777 18.2578 10.4316C18.1289 10.1816 18.0645 9.8457 18.0645 9.42383V3.11914ZM24.2344 11.1172C23.793 11.1172 23.3926 11.043 23.0332 10.8945C22.6777 10.7422 22.3711 10.5293 22.1133 10.2559C21.8594 9.98242 21.6641 9.6582 21.5273 9.2832C21.3906 8.9082 21.3223 8.49805 21.3223 8.05273V7.80664C21.3223 7.29102 21.3984 6.83203 21.5508 6.42969C21.7031 6.02344 21.9102 5.67969 22.1719 5.39844C22.4336 5.11719 22.7305 4.9043 23.0625 4.75977C23.3945 4.61523 23.7383 4.54297 24.0938 4.54297C24.5469 4.54297 24.9375 4.62109 25.2656 4.77734C25.5977 4.93359 25.8691 5.15234 26.0801 5.43359C26.291 5.71094 26.4473 6.03906 26.5488 6.41797C26.6504 6.79297 26.7012 7.20312 26.7012 7.64844V8.13477H21.9668V7.25H25.6172V7.16797C25.6016 6.88672 25.543 6.61328 25.4414 6.34766C25.3438 6.08203 25.1875 5.86328 24.9727 5.69141C24.7578 5.51953 24.4648 5.43359 24.0938 5.43359C23.8477 5.43359 23.6211 5.48633 23.4141 5.5918C23.207 5.69336 23.0293 5.8457 22.8809 6.04883C22.7324 6.25195 22.6172 6.5 22.5352 6.79297C22.4531 7.08594 22.4121 7.42383 22.4121 7.80664V8.05273C22.4121 8.35352 22.4531 8.63672 22.5352 8.90234C22.6211 9.16406 22.7441 9.39453 22.9043 9.59375C23.0684 9.79297 23.2656 9.94922 23.4961 10.0625C23.7305 10.1758 23.9961 10.2324 24.293 10.2324C24.6758 10.2324 25 10.1543 25.2656 9.99805C25.5312 9.8418 25.7637 9.63281 25.9629 9.37109L26.6191 9.89258C26.4824 10.0996 26.3086 10.2969 26.0977 10.4844C25.8867 10.6719 25.627 10.8242 25.3184 10.9414C25.0137 11.0586 24.6523 11.1172 24.2344 11.1172ZM29.0508 5.65625V11H27.9668V4.66016H29.0215L29.0508 5.65625ZM31.0312 4.625L31.0254 5.63281C30.9355 5.61328 30.8496 5.60156 30.7676 5.59766C30.6895 5.58984 30.5996 5.58594 30.498 5.58594C30.248 5.58594 30.0273 5.625 29.8359 5.70312C29.6445 5.78125 29.4824 5.89062 29.3496 6.03125C29.2168 6.17188 29.1113 6.33984 29.0332 6.53516C28.959 6.72656 28.9102 6.9375 28.8867 7.16797L28.582 7.34375C28.582 6.96094 28.6191 6.60156 28.6934 6.26562C28.7715 5.92969 28.8906 5.63281 29.0508 5.375C29.2109 5.11328 29.4141 4.91016 29.6602 4.76562C29.9102 4.61719 30.207 4.54297 30.5508 4.54297C30.6289 4.54297 30.7188 4.55273 30.8203 4.57227C30.9219 4.58789 30.9922 4.60547 31.0312 4.625Z" fill="black"/>
<path d="M2.20312 10.4688V19H1.07227V10.4688H2.20312ZM5.17383 13.9199V19H4.08398V12.6602H5.11523L5.17383 13.9199ZM4.95117 15.5898L4.44727 15.5723C4.45117 15.1387 4.50781 14.7383 4.61719 14.3711C4.72656 14 4.88867 13.6777 5.10352 13.4043C5.31836 13.1309 5.58594 12.9199 5.90625 12.7715C6.22656 12.6191 6.59766 12.543 7.01953 12.543C7.31641 12.543 7.58984 12.5859 7.83984 12.6719C8.08984 12.7539 8.30664 12.8848 8.49023 13.0645C8.67383 13.2441 8.81641 13.4746 8.91797 13.7559C9.01953 14.0371 9.07031 14.377 9.07031 14.7754V19H7.98633V14.8281C7.98633 14.4961 7.92969 14.2305 7.81641 14.0312C7.70703 13.832 7.55078 13.6875 7.34766 13.5977C7.14453 13.5039 6.90625 13.457 6.63281 13.457C6.3125 13.457 6.04492 13.5137 5.83008 13.627C5.61523 13.7402 5.44336 13.8965 5.31445 14.0957C5.18555 14.2949 5.0918 14.5234 5.0332 14.7812C4.97852 15.0352 4.95117 15.3047 4.95117 15.5898ZM9.05859 14.9922L8.33203 15.2148C8.33594 14.8672 8.39258 14.5332 8.50195 14.2129C8.61523 13.8926 8.77734 13.6074 8.98828 13.3574C9.20312 13.1074 9.4668 12.9102 9.7793 12.7656C10.0918 12.6172 10.4492 12.543 10.8516 12.543C11.1914 12.543 11.4922 12.5879 11.7539 12.6777C12.0195 12.7676 12.2422 12.9062 12.4219 13.0938C12.6055 13.2773 12.7441 13.5137 12.8379 13.8027C12.9316 14.0918 12.9785 14.4355 12.9785 14.834V19H11.8887V14.8223C11.8887 14.4668 11.832 14.1914 11.7188 13.9961C11.6094 13.7969 11.4531 13.6582 11.25 13.5801C11.0508 13.498 10.8125 13.457 10.5352 13.457C10.2969 13.457 10.0859 13.498 9.90234 13.5801C9.71875 13.6621 9.56445 13.7754 9.43945 13.9199C9.31445 14.0605 9.21875 14.2227 9.15234 14.4062C9.08984 14.5898 9.05859 14.7852 9.05859 14.9922ZM17.25 19.1172C16.8086 19.1172 16.4082 19.043 16.0488 18.8945C15.6934 18.7422 15.3867 18.5293 15.1289 18.2559C14.875 17.9824 14.6797 17.6582 14.543 17.2832C14.4062 16.9082 14.3379 16.498 14.3379 16.0527V15.8066C14.3379 15.291 14.4141 14.832 14.5664 14.4297C14.7188 14.0234 14.9258 13.6797 15.1875 13.3984C15.4492 13.1172 15.7461 12.9043 16.0781 12.7598C16.4102 12.6152 16.7539 12.543 17.1094 12.543C17.5625 12.543 17.9531 12.6211 18.2812 12.7773C18.6133 12.9336 18.8848 13.1523 19.0957 13.4336C19.3066 13.7109 19.4629 14.0391 19.5645 14.418C19.666 14.793 19.7168 15.2031 19.7168 15.6484V16.1348H14.9824V15.25H18.6328V15.168C18.6172 14.8867 18.5586 14.6133 18.457 14.3477C18.3594 14.082 18.2031 13.8633 17.9883 13.6914C17.7734 13.5195 17.4805 13.4336 17.1094 13.4336C16.8633 13.4336 16.6367 13.4863 16.4297 13.5918C16.2227 13.6934 16.0449 13.8457 15.8965 14.0488C15.748 14.252 15.6328 14.5 15.5508 14.793C15.4688 15.0859 15.4277 15.4238 15.4277 15.8066V16.0527C15.4277 16.3535 15.4688 16.6367 15.5508 16.9023C15.6367 17.1641 15.7598 17.3945 15.9199 17.5938C16.084 17.793 16.2812 17.9492 16.5117 18.0625C16.7461 18.1758 17.0117 18.2324 17.3086 18.2324C17.6914 18.2324 18.0156 18.1543 18.2812 17.998C18.5469 17.8418 18.7793 17.6328 18.9785 17.3711L19.6348 17.8926C19.498 18.0996 19.3242 18.2969 19.1133 18.4844C18.9023 18.6719 18.6426 18.8242 18.334 18.9414C18.0293 19.0586 17.668 19.1172 17.25 19.1172Z" fill="#1C47E0"/>
</svg>
